<svg xmlns="http://www.w3.org/2000/svg" xmlns:xlink="http://www.w3.org/1999/xlink" width="2000" zoomAndPan="magnify" viewBox="0 0 1500 525.000007" height="700" preserveAspectRatio="xMidYMid meet" version="1.0"><defs><g/><clipPath id="dde69b1d0f"><rect x="0" width="800" y="0" height="420"/></clipPath></defs><g transform="matrix(1, 0, 0, 1, 673, 25)"><g clip-path="url(#dde69b1d0f)"><g fill="#ffffff" fill-opacity="1"><g transform="translate(0.962287, 342.51363)"><g><path d="M 2.875 -201.0625 L 47.6875 -201.0625 L 79.28125 -59.171875 L 81 -59.171875 L 123.515625 -201.0625 L 162.578125 -201.0625 L 205.078125 -59.171875 L 206.8125 -59.171875 L 238.6875 -201.0625 L 283.5 -201.0625 L 232.375 0.28125 L 179.515625 0.28125 L 143.90625 -120.34375 L 142.1875 -120.34375 L 106.5625 0.28125 L 53.71875 0.28125 Z M 2.875 -201.0625 "/></g></g></g><g fill="#ffffff" fill-opacity="1"><g transform="translate(264.352211, 342.51363)"><g><path d="M 16.375 -151.953125 L 60.890625 -151.953125 L 60.890625 -127.8125 L 63.1875 -127.8125 C 65.488281 -134.519531 70.035156 -140.21875 76.828125 -144.90625 C 83.628906 -149.601562 92.488281 -151.953125 103.40625 -151.953125 C 106.65625 -151.953125 109.71875 -151.660156 112.59375 -151.078125 L 110.578125 -110.015625 C 106.179688 -111.546875 101.109375 -112.3125 95.359375 -112.3125 C 83.296875 -112.3125 74.535156 -109.242188 69.078125 -103.109375 C 63.617188 -96.984375 60.890625 -86.835938 60.890625 -72.671875 L 60.890625 0 L 16.375 0 Z M 16.375 -151.953125 "/></g></g></g><g fill="#ffffff" fill-opacity="1"><g transform="translate(359.424901, 342.51363)"><g><path d="M 20.109375 -151.953125 L 64.625 -151.953125 L 64.625 0 L 20.109375 0 Z M 42.21875 -177.21875 C 35.332031 -177.21875 29.585938 -179.5625 24.984375 -184.25 C 20.390625 -188.945312 18.09375 -194.644531 18.09375 -201.34375 C 18.09375 -208.238281 20.390625 -214.03125 24.984375 -218.71875 C 29.585938 -223.414062 35.332031 -225.765625 42.21875 -225.765625 C 49.113281 -225.765625 54.90625 -223.414062 59.59375 -218.71875 C 64.289062 -214.03125 66.640625 -208.238281 66.640625 -201.34375 C 66.640625 -194.644531 64.289062 -188.945312 59.59375 -184.25 C 54.90625 -179.5625 49.113281 -177.21875 42.21875 -177.21875 Z M 42.21875 -177.21875 "/></g></g></g><g fill="#ffffff" fill-opacity="1"><g transform="translate(421.178889, 342.51363)"><g><path d="M 76.6875 -117.1875 L 76.6875 -56.296875 C 76.6875 -49.597656 77.019531 -44.664062 77.6875 -41.5 C 78.363281 -38.34375 80.28125 -35.804688 83.4375 -33.890625 C 86.601562 -31.972656 91.726562 -31.015625 98.8125 -31.015625 C 102.445312 -31.015625 106.179688 -31.398438 110.015625 -32.171875 L 110.015625 -1.15625 C 108.097656 -0.769531 104.265625 -0.335938 98.515625 0.140625 C 92.773438 0.617188 87.03125 0.859375 81.28125 0.859375 C 66.351562 0.859375 55.296875 -1.335938 48.109375 -5.734375 C 40.929688 -10.140625 36.476562 -15.503906 34.75 -21.828125 C 33.03125 -28.148438 32.171875 -36.382812 32.171875 -46.53125 L 32.171875 -117.1875 L 7.75 -117.1875 L 7.75 -151.953125 L 32.171875 -151.953125 L 32.171875 -201.0625 L 76.6875 -201.0625 L 76.6875 -151.953125 L 110.015625 -151.953125 L 110.015625 -117.1875 Z M 76.6875 -117.1875 "/></g></g></g><g fill="#ffffff" fill-opacity="1"><g transform="translate(521.708991, 342.51363)"><g><path d="M 83.578125 2.578125 C 67.492188 2.578125 53.945312 -1.101562 42.9375 -8.46875 C 31.925781 -15.84375 23.785156 -25.515625 18.515625 -37.484375 C 13.253906 -49.453125 10.625 -62.328125 10.625 -76.109375 C 10.625 -89.898438 13.253906 -102.78125 18.515625 -114.75 C 23.785156 -126.71875 31.925781 -136.4375 42.9375 -143.90625 C 53.945312 -151.375 67.6875 -155.109375 84.15625 -155.109375 C 105.601562 -155.109375 122.644531 -148.359375 135.28125 -134.859375 C 147.925781 -121.359375 154.25 -101.773438 154.25 -76.109375 L 154.25 -63.765625 L 53.71875 -63.765625 L 53.71875 -61.46875 C 53.71875 -53.613281 56.441406 -46.863281 61.890625 -41.21875 C 67.347656 -35.570312 74.289062 -32.75 82.71875 -32.75 C 89.226562 -32.75 94.78125 -34.234375 99.375 -37.203125 C 103.976562 -40.171875 107.238281 -44.140625 109.15625 -49.109375 L 153.09375 -49.109375 C 149.257812 -33.984375 141.359375 -21.585938 129.390625 -11.921875 C 117.429688 -2.253906 102.160156 2.578125 83.578125 2.578125 Z M 111.453125 -92.484375 C 111.253906 -102.828125 108.617188 -110.488281 103.546875 -115.46875 C 98.472656 -120.445312 91.722656 -122.9375 83.296875 -122.9375 C 74.679688 -122.9375 67.835938 -120.253906 62.765625 -114.890625 C 57.691406 -109.523438 55.054688 -102.054688 54.859375 -92.484375 Z M 111.453125 -92.484375 "/></g></g></g><g fill="#ffffff" fill-opacity="1"><g transform="translate(663.600289, 342.51363)"><g><path d="M 72.390625 2.578125 C 59.554688 2.578125 48.445312 0.1875 39.0625 -4.59375 C 29.675781 -9.382812 22.539062 -15.65625 17.65625 -23.40625 C 12.78125 -31.164062 10.34375 -39.351562 10.34375 -47.96875 L 10.34375 -49.984375 L 53.71875 -49.984375 L 53.71875 -48.25 C 53.71875 -43.851562 55.4375 -39.976562 58.875 -36.625 C 62.320312 -33.269531 67.207031 -31.59375 73.53125 -31.59375 C 78.894531 -31.59375 83.203125 -32.882812 86.453125 -35.46875 C 89.710938 -38.050781 91.34375 -41.453125 91.34375 -45.671875 C 91.34375 -49.503906 89.8125 -52.566406 86.75 -54.859375 C 83.6875 -57.160156 79.851562 -58.691406 75.25 -59.453125 L 58.890625 -62.90625 C 47.773438 -64.820312 37.523438 -69.273438 28.140625 -76.265625 C 18.765625 -83.253906 14.078125 -94.023438 14.078125 -108.578125 C 14.078125 -123.316406 19.390625 -134.753906 30.015625 -142.890625 C 40.640625 -151.035156 54.285156 -155.109375 70.953125 -155.109375 C 83.390625 -155.109375 94.109375 -152.90625 103.109375 -148.5 C 112.109375 -144.09375 118.90625 -138.296875 123.5 -131.109375 C 128.101562 -123.929688 130.40625 -116.320312 130.40625 -108.28125 L 130.40625 -106.84375 L 87.03125 -106.84375 L 87.03125 -107.71875 C 87.03125 -111.539062 85.59375 -115.078125 82.71875 -118.328125 C 79.851562 -121.585938 75.453125 -123.21875 69.515625 -123.21875 C 64.535156 -123.21875 60.5625 -122.019531 57.59375 -119.625 C 54.625 -117.238281 53.140625 -113.9375 53.140625 -109.71875 C 53.140625 -102.25 59.363281 -97.367188 71.8125 -95.078125 L 89.609375 -91.046875 C 101.679688 -88.367188 111.878906 -83.488281 120.203125 -76.40625 C 128.535156 -69.320312 132.703125 -59.269531 132.703125 -46.25 C 132.703125 -36.289062 130.066406 -27.625 124.796875 -20.25 C 119.535156 -12.875 112.304688 -7.222656 103.109375 -3.296875 C 93.921875 0.617188 83.679688 2.578125 72.390625 2.578125 Z M 72.390625 2.578125 "/></g></g></g></g></g><g fill="#ffffff" fill-opacity="1"><g transform="translate(-0.0630311, 379.331273)"><g><path d="M 52.6875 -75.515625 C 66.78125 -98.785156 80.988281 -117.578125 95.3125 -131.890625 C 109.632812 -146.210938 122.945312 -153.375 135.25 -153.375 C 140.394531 -153.375 144.703125 -151.640625 148.171875 -148.171875 C 151.640625 -144.703125 153.375 -139.722656 153.375 -133.234375 C 153.375 -127.191406 151.804688 -118.46875 148.671875 -107.0625 L 127.53125 -34.5625 C 125.519531 -27.40625 124.515625 -22.484375 124.515625 -19.796875 C 124.515625 -17.785156 125.015625 -16.332031 126.015625 -15.4375 C 127.023438 -14.539062 128.085938 -14.09375 129.203125 -14.09375 C 131.890625 -14.09375 136.03125 -17 141.625 -22.8125 C 147.21875 -28.632812 151.019531 -33.222656 153.03125 -36.578125 L 158.078125 -32.546875 C 151.140625 -22.929688 143.363281 -14.429688 134.75 -7.046875 C 126.132812 0.335938 118.023438 4.03125 110.421875 4.03125 C 106.835938 4.03125 103.8125 2.632812 101.34375 -0.15625 C 98.882812 -2.957031 97.65625 -6.707031 97.65625 -11.40625 C 97.65625 -16.332031 98.890625 -22.9375 101.359375 -31.21875 L 124.171875 -111.421875 C 124.398438 -112.085938 124.960938 -113.929688 125.859375 -116.953125 C 126.753906 -119.972656 127.203125 -122.941406 127.203125 -125.859375 C 127.203125 -128.765625 126.414062 -131 124.84375 -132.5625 C 123.28125 -134.132812 121.601562 -134.921875 119.8125 -134.921875 C 114.664062 -134.921875 107.222656 -130.554688 97.484375 -121.828125 C 87.753906 -113.097656 78.304688 -102.132812 69.140625 -88.9375 C 61.304688 -77.96875 54.984375 -67.84375 50.171875 -58.5625 C 45.359375 -49.28125 41.050781 -38.035156 37.25 -24.828125 C 34.34375 -15.210938 31.992188 -6.9375 30.203125 0 L 4.359375 0 L 36.25 -111.765625 C 36.46875 -112.429688 37.25 -115.28125 38.59375 -120.3125 C 39.9375 -125.351562 40.609375 -128.988281 40.609375 -131.21875 C 40.609375 -133.90625 39.65625 -135.972656 37.75 -137.421875 C 35.851562 -138.878906 33.335938 -139.609375 30.203125 -139.609375 C 27.066406 -139.609375 22.59375 -139.382812 16.78125 -138.9375 L 16.78125 -144.984375 L 68.125 -153.375 L 74.171875 -153.375 L 52.015625 -76.1875 Z M 52.6875 -75.515625 "/></g></g></g><g fill="#ffffff" fill-opacity="1"><g transform="translate(144.251153, 379.331273)"><g><path d="M 104.375 -153.375 C 110.414062 -153.375 115.894531 -151.300781 120.8125 -147.15625 C 125.738281 -143.019531 128.757812 -137.257812 129.875 -129.875 L 130.546875 -129.875 L 135.921875 -149.6875 L 162.4375 -153.375 L 127.875 -32.21875 C 127.644531 -31.769531 127.082031 -30.09375 126.1875 -27.1875 C 125.289062 -24.28125 124.84375 -21.367188 124.84375 -18.453125 C 124.84375 -16.671875 125.289062 -15.273438 126.1875 -14.265625 C 127.082031 -13.253906 128.085938 -12.75 129.203125 -12.75 C 132.117188 -12.75 135.8125 -14.757812 140.28125 -18.78125 C 144.757812 -22.8125 149.007812 -28.410156 153.03125 -35.578125 L 158.078125 -32.21875 C 152.035156 -21.03125 144.367188 -12.191406 135.078125 -5.703125 C 125.796875 0.785156 117.578125 4.03125 110.421875 4.03125 C 106.390625 4.03125 103.363281 2.578125 101.34375 -0.328125 C 99.332031 -3.242188 98.328125 -6.828125 98.328125 -11.078125 C 98.328125 -13.984375 98.941406 -18.734375 100.171875 -25.328125 C 101.410156 -31.929688 103.367188 -38.59375 106.046875 -45.3125 L 105.375 -45.984375 C 80.320312 -12.640625 57.613281 4.03125 37.25 4.03125 C 28.300781 4.03125 21.195312 0.171875 15.9375 -7.546875 C 10.675781 -15.265625 8.046875 -24.160156 8.046875 -34.234375 C 8.046875 -51.679688 13.132812 -69.742188 23.3125 -88.421875 C 33.5 -107.109375 46.144531 -122.601562 61.25 -134.90625 C 76.351562 -147.21875 90.726562 -153.375 104.375 -153.375 Z M 34.90625 -40.609375 C 34.90625 -31.878906 36.914062 -25.5 40.9375 -21.46875 C 44.96875 -17.445312 49.671875 -15.4375 55.046875 -15.4375 C 61.972656 -15.4375 69.460938 -18.566406 77.515625 -24.828125 C 85.578125 -31.097656 93.019531 -39.097656 99.84375 -48.828125 C 106.664062 -58.566406 111.753906 -68.46875 115.109375 -78.53125 C 118.460938 -88.375 120.921875 -96.484375 122.484375 -102.859375 C 124.054688 -109.234375 124.84375 -115.441406 124.84375 -121.484375 C 124.84375 -130.210938 122.828125 -136.644531 118.796875 -140.78125 C 114.773438 -144.925781 110.078125 -147 104.703125 -147 C 94.191406 -147 83.507812 -140.566406 72.65625 -127.703125 C 61.800781 -114.835938 52.796875 -99.789062 45.640625 -82.5625 C 38.484375 -65.332031 34.90625 -51.347656 34.90625 -40.609375 Z M 34.90625 -40.609375 "/></g></g></g><g fill="#ffffff" fill-opacity="1"><g transform="translate(288.565337, 379.331273)"><g><path d="M 108.734375 -153.375 C 118.128906 -153.375 126.015625 -151.023438 132.390625 -146.328125 C 138.773438 -141.628906 141.96875 -135.585938 141.96875 -128.203125 C 141.96875 -121.046875 138.609375 -112.878906 131.890625 -103.703125 C 125.179688 -94.523438 114.273438 -86.410156 99.171875 -79.359375 C 84.066406 -72.316406 64.878906 -68.460938 41.609375 -67.796875 C 40.273438 -63.316406 39.609375 -57.832031 39.609375 -51.34375 C 39.609375 -37.695312 43.296875 -27.796875 50.671875 -21.640625 C 58.054688 -15.492188 66.222656 -12.421875 75.171875 -12.421875 C 90.160156 -12.421875 105.375 -19.914062 120.8125 -34.90625 L 125.1875 -30.875 C 101.238281 -7.601562 78.082031 4.03125 55.71875 4.03125 C 46.539062 4.03125 38.539062 1.738281 31.71875 -2.84375 C 24.894531 -7.4375 19.75 -13.425781 16.28125 -20.8125 C 12.8125 -28.195312 11.078125 -35.800781 11.078125 -43.625 C 11.078125 -59.289062 15.609375 -75.738281 24.671875 -92.96875 C 33.734375 -110.195312 45.8125 -124.570312 60.90625 -136.09375 C 76.007812 -147.613281 91.953125 -153.375 108.734375 -153.375 Z M 43.625 -74.171875 C 58.84375 -75.285156 71.148438 -77.859375 80.546875 -81.890625 C 89.722656 -85.910156 97.160156 -91.109375 102.859375 -97.484375 C 108.566406 -103.867188 112.648438 -110.132812 115.109375 -116.28125 C 117.578125 -122.4375 118.8125 -127.53125 118.8125 -131.5625 C 118.8125 -135.363281 117.410156 -138.882812 114.609375 -142.125 C 111.816406 -145.375 107.847656 -147 102.703125 -147 C 93.742188 -147 85.066406 -142.859375 76.671875 -134.578125 C 68.285156 -126.296875 61.128906 -116.445312 55.203125 -105.03125 C 49.273438 -93.625 45.414062 -83.335938 43.625 -74.171875 Z M 43.625 -74.171875 "/></g></g></g><g fill="#ffffff" fill-opacity="1"><g transform="translate(412.071432, 379.331273)"><g><path d="M 108.734375 -153.375 C 118.128906 -153.375 126.015625 -151.023438 132.390625 -146.328125 C 138.773438 -141.628906 141.96875 -135.585938 141.96875 -128.203125 C 141.96875 -121.046875 138.609375 -112.878906 131.890625 -103.703125 C 125.179688 -94.523438 114.273438 -86.410156 99.171875 -79.359375 C 84.066406 -72.316406 64.878906 -68.460938 41.609375 -67.796875 C 40.273438 -63.316406 39.609375 -57.832031 39.609375 -51.34375 C 39.609375 -37.695312 43.296875 -27.796875 50.671875 -21.640625 C 58.054688 -15.492188 66.222656 -12.421875 75.171875 -12.421875 C 90.160156 -12.421875 105.375 -19.914062 120.8125 -34.90625 L 125.1875 -30.875 C 101.238281 -7.601562 78.082031 4.03125 55.71875 4.03125 C 46.539062 4.03125 38.539062 1.738281 31.71875 -2.84375 C 24.894531 -7.4375 19.75 -13.425781 16.28125 -20.8125 C 12.8125 -28.195312 11.078125 -35.800781 11.078125 -43.625 C 11.078125 -59.289062 15.609375 -75.738281 24.671875 -92.96875 C 33.734375 -110.195312 45.8125 -124.570312 60.90625 -136.09375 C 76.007812 -147.613281 91.953125 -153.375 108.734375 -153.375 Z M 43.625 -74.171875 C 58.84375 -75.285156 71.148438 -77.859375 80.546875 -81.890625 C 89.722656 -85.910156 97.160156 -91.109375 102.859375 -97.484375 C 108.566406 -103.867188 112.648438 -110.132812 115.109375 -116.28125 C 117.578125 -122.4375 118.8125 -127.53125 118.8125 -131.5625 C 118.8125 -135.363281 117.410156 -138.882812 114.609375 -142.125 C 111.816406 -145.375 107.847656 -147 102.703125 -147 C 93.742188 -147 85.066406 -142.859375 76.671875 -134.578125 C 68.285156 -126.296875 61.128906 -116.445312 55.203125 -105.03125 C 49.273438 -93.625 45.414062 -83.335938 43.625 -74.171875 Z M 43.625 -74.171875 "/></g></g></g><g fill="#ffffff" fill-opacity="1"><g transform="translate(535.577481, 379.331273)"><g><path d="M 79.203125 -153.375 C 87.253906 -153.375 94.863281 -151.472656 102.03125 -147.671875 C 106.050781 -145.878906 108.847656 -144.984375 110.421875 -144.984375 C 114.671875 -144.984375 118.132812 -147.78125 120.8125 -153.375 L 126.859375 -153.375 L 117.796875 -102.359375 L 111.765625 -102.359375 C 111.765625 -116.898438 108.910156 -127.863281 103.203125 -135.25 C 97.492188 -142.632812 90.5 -146.328125 82.21875 -146.328125 C 76.175781 -146.328125 71.195312 -144.425781 67.28125 -140.625 C 63.375 -136.820312 61.421875 -132.570312 61.421875 -127.875 C 61.421875 -122.5 62.984375 -117.070312 66.109375 -111.59375 C 69.242188 -106.113281 74.164062 -98.894531 80.875 -89.9375 C 88.488281 -80.09375 94.304688 -71.476562 98.328125 -64.09375 C 102.359375 -56.71875 104.375 -49 104.375 -40.9375 C 104.375 -33.332031 102.300781 -26.117188 98.15625 -19.296875 C 94.019531 -12.472656 88.148438 -6.878906 80.546875 -2.515625 C 72.941406 1.847656 64.101562 4.03125 54.03125 4.03125 C 48.21875 4.03125 41.171875 2.578125 32.890625 -0.328125 C 27.066406 -2.117188 23.265625 -3.015625 21.484375 -3.015625 C 17.234375 -3.015625 13.425781 -0.664062 10.0625 4.03125 L 3.015625 4.03125 L 12.75 -49.671875 L 19.46875 -49.671875 C 20.363281 -36.242188 23.101562 -25.109375 27.6875 -16.265625 C 32.269531 -7.429688 40.828125 -3.015625 53.359375 -3.015625 C 62.085938 -3.015625 68.910156 -5.976562 73.828125 -11.90625 C 78.753906 -17.84375 81.21875 -24.054688 81.21875 -30.546875 C 81.21875 -35.242188 79.875 -40.109375 77.1875 -45.140625 C 74.5 -50.171875 71.476562 -55.144531 68.125 -60.0625 C 64.769531 -64.988281 62.535156 -68.238281 61.421875 -69.8125 L 56.375 -77.1875 C 50.5625 -85.238281 46.253906 -92.171875 43.453125 -97.984375 C 40.660156 -103.804688 39.265625 -110.078125 39.265625 -116.796875 C 39.265625 -124.847656 41.390625 -131.613281 45.640625 -137.09375 C 49.890625 -142.570312 55.144531 -146.65625 61.40625 -149.34375 C 67.675781 -152.03125 73.609375 -153.375 79.203125 -153.375 Z M 79.203125 -153.375 "/></g></g></g></svg>